<?xml version="1.0" standalone="no"?>
<!DOCTYPE svg PUBLIC "-//W3C//DTD SVG 20010904//EN"
 "http://www.w3.org/TR/2001/REC-SVG-20010904/DTD/svg10.dtd">
<svg version="1.0" xmlns="http://www.w3.org/2000/svg"
 width="128.000000pt" height="128.000000pt" viewBox="0 0 128.000000 128.000000"
 preserveAspectRatio="xMidYMid meet">
<metadata>
Created by potrace 1.14, written by Peter Selinger 2001-2017
</metadata>
<g transform="translate(0.000000,128.000000) scale(0.100000,-0.100000)"
fill="#000000" stroke="none">
<path d="M429 1266 c-52 -27 -109 -69 -124 -93 -22 -32 -21 -94 0 -135 13 -24
19 -60 20 -138 2 -58 -1 -110 -6 -116 -4 -5 -28 -9 -51 -7 -140 12 -171 8
-205 -29 -17 -18 -18 -43 -19 -309 -1 -186 2 -289 9 -289 12 0 36 -31 37 -47
0 -6 -10 -13 -23 -15 -24 -3 -31 -33 -7 -34 35 -1 136 -29 142 -38 4 -6 8 -7
8 -2 0 5 7 3 15 -4 13 -11 14 -10 10 3 -6 13 -2 14 27 4 21 -7 91 -11 178 -10
80 1 254 2 387 4 159 1 240 5 236 12 -3 6 -2 7 3 4 6 -3 39 2 75 12 36 10 73
17 82 15 11 -1 17 5 17 17 0 18 -10 23 -36 20 -18 -2 -24 27 -13 57 7 17 11
130 12 305 l0 278 -24 25 c-20 20 -38 25 -94 29 -38 3 -71 9 -75 14 -13 22 -2
168 18 226 11 33 19 71 17 85 -1 14 -3 30 -4 36 -2 22 -72 83 -124 109 -40 19
-65 24 -103 22 -27 -2 -54 -5 -59 -8 -6 -3 -21 -4 -35 -2 -98 11 -269 11 -291
-1z m404 -1201 c-7 -19 -59 -19 -66 -1 -4 11 3 16 26 18 40 4 48 1 40 -17z"/>
</g>
</svg>
